<?xml version="1.0" encoding="UTF-8"?>
<svg version="1.1" xmlns="http://www.w3.org/2000/svg" width="3340" height="3340">
<path d="M0 0 C3.78820696 0.01611691 7.57534985 0.0000238 11.36352539 -0.01904297 C31.24383609 -0.03702668 50.85360127 1.36039807 70.22485352 6.07861328 C71.82321045 6.4598938 71.82321045 6.4598938 73.45385742 6.84887695 C92.13813975 11.45310967 109.95307482 17.93216099 127.22485352 26.39111328 C128.07112305 26.80200195 128.91739258 27.21289062 129.78930664 27.63623047 C153.94428258 39.47850144 175.81922963 54.7898999 195.22485352 73.39111328 C195.7546582 73.89368652 196.28446289 74.39625977 196.83032227 74.9140625 C205.13246263 82.8242669 212.42786848 91.16081719 219.22485352 100.39111328 C219.70277344 101.03532227 220.18069336 101.67953125 220.6730957 102.34326172 C228.95373172 113.57152031 236.33344025 125.26454237 243.22485352 137.39111328 C243.68746582 138.20499512 244.15007812 139.01887695 244.62670898 139.85742188 C289.07129252 219.0751194 296.15196206 311.18101496 303.32130432 450.47540283 C307.98581796 543.39706583 314.00317145 636.24199492 338.53735352 786.45361328 C338.78483841 787.67865067 338.78483841 787.67865067 339.037323 788.92843628 C339.5040219 791.22126422 339.98114711 793.51161191 340.46313477 795.80126953 C340.7316626 797.08138916 341.00019043 798.36150879 341.27685547 799.68041992 C343.4115658 808.72254962 343.4115658 808.72254962 349.82250977 815.02001953 C350.71341309 815.58994629 351.60431641 816.15987305 352.5222168 816.74707031 C353.41408691 817.28960449 354.30595703 817.83213867 355.22485352 818.39111328 C355.99941895 818.88853027 356.77398438 819.38594727 357.57202148 819.8984375 C359.91924659 821.40293974 362.28646977 822.86982395 364.66235352 824.32861328 C365.552854 824.87727051 366.44335449 825.42592773 367.36083984 825.99121094 C425.01700264 861.36472712 483.73067537 891.99530286 545.91055298 918.53753662 C561.6841933 925.27115666 577.37504677 932.17463361 593.0289917 939.18138123 C598.25449931 941.51788653 603.48863933 943.83423759 608.72715759 946.14141846 C612.70971874 947.89553344 616.69048462 949.65370462 620.67123413 951.41192627 C622.57832941 952.25306329 624.48619015 953.0924676 626.39492798 953.92987061 C660.49698648 968.89633193 692.84469193 985.7603528 720.22485352 1011.39111328 C721.66538086 1012.73302734 721.66538086 1012.73302734 723.13500977 1014.10205078 C745.68539887 1035.58070201 762.3903447 1066.53476588 763.33520508 1098.07470703 C763.39638506 1101.6589693 763.41054645 1105.24265604 763.41015625 1108.82739258 C763.41233194 1111.05651268 763.4305123 1113.28512784 763.44946289 1115.51416016 C763.59581336 1151.85643243 748.63508399 1181.63210084 723.66235352 1207.20361328 C693.96187392 1236.15112297 651.49967141 1250.42335674 610.43969727 1250.59423828 C609.31805679 1250.60120728 608.19641632 1250.60817627 607.04078674 1250.61535645 C603.41460412 1250.63274423 599.78857618 1250.63908306 596.16235352 1250.64111328 C594.92388672 1250.64212036 593.68541992 1250.64312744 592.40942383 1250.64416504 C573.12894921 1250.63355354 554.35154242 1249.86345875 535.22485352 1247.39111328 C533.06464394 1247.12658752 530.90395678 1246.86618979 528.74325562 1246.60571289 C505.391752 1243.78007944 505.391752 1243.78007944 501.22485352 1242.39111328 C504.90528992 1252.433292 508.81790551 1262.33726726 513.00128174 1272.1796875 C542.94603544 1342.80974635 570.39042579 1415.92567596 581.53735352 1492.20361328 C581.69695557 1493.29343506 581.85655762 1494.38325684 582.02099609 1495.50610352 C584.12584699 1510.82118925 584.41139317 1526.09215696 584.41015625 1541.52514648 C584.41233781 1544.55678469 584.43055699 1547.58805481 584.44946289 1550.61962891 C584.50214684 1568.48955265 583.12989294 1586.02808492 580.03735352 1603.64111328 C579.7169812 1605.46944702 579.7169812 1605.46944702 579.39013672 1607.3347168 C569.81402219 1659.66219124 545.36535082 1710.74021949 506.72875977 1747.88720703 C505.13675941 1749.47920739 503.71892675 1751.15413775 502.28735352 1752.89111328 C499.59213363 1756.08991373 496.64050075 1758.76986318 493.45141602 1761.46923828 C491.91342687 1762.79676575 490.40963959 1764.16459271 488.93579102 1765.56298828 C422.31720372 1828.67533414 320.05328453 1842.09564628 218.22485352 1852.39111328 C218.08863586 1852.93091324 217.95241821 1853.4707132 217.81207275 1854.02687073 C210.38759753 1883.40514831 202.60390334 1912.5721305 193.22485352 1941.39111328 C192.99773682 1942.09330994 192.77062012 1942.79550659 192.53662109 1943.51898193 C168.10136635 2019.03872301 130.07599107 2105.9996173 51.26000977 2152.6081543 C20.76235071 2168.08747237 -14.43190171 2172.27638722 -47.33764648 2162.26611328 C-65.77978751 2155.65850126 -80.63827132 2144.76383303 -94.77514648 2131.39111328 C-95.6581543 2130.57255859 -96.54116211 2129.75400391 -97.45092773 2128.91064453 C-160.50794351 2068.52931542 -153.62805276 1954.40754451 -156.77514648 1874.39111328 C-251.82661937 1887.99890961 -345.67436934 1910.06732687 -491.65014648 1955.01611328 C-492.45902313 1955.29212372 -493.26789978 1955.56813416 -494.10128784 1955.85250854 C-498.59147327 1957.39133631 -503.06367468 1958.97283944 -507.5255127 1960.59191895 C-509.93717188 1961.44867366 -512.36309529 1962.25479481 -514.79174805 1963.06201172 C-516.43512426 1963.63650806 -518.07804227 1964.21231707 -519.72045898 1964.78955078 C-520.48413788 1965.03178375 -521.24781677 1965.27401672 -522.03463745 1965.52359009 C-526.0496849 1966.9795388 -526.0496849 1966.9795388 -528.83326721 1970.07264709 C-529.63663973 1972.15752952 -530.22039717 1974.22725855 -530.77514648 1976.39111328 C-531.25536741 1977.86587678 -531.74348938 1979.33808682 -532.23876953 1980.80786133 C-532.7564138 1982.42233548 -533.27235866 1984.03735521 -533.78686523 1985.65283203 C-534.37689802 1987.48965042 -534.96741483 1989.32631339 -535.55834961 1991.1628418 C-535.86780518 1992.12537872 -536.17726074 1993.08791565 -536.49609375 1994.07962036 C-565.28955658 2083.41917535 -600.07137982 2173.67840049 -671.29956055 2264.64453125 C-672.46319509 2266.02187101 -673.6002989 2267.42162504 -674.72729492 2268.82910156 C-680.17506104 2275.62740468 -685.9649026 2281.88544508 -692.15014648 2288.01611328 C-693.01897461 2288.89267578 -693.88780273 2289.76923828 -694.78295898 2290.67236328 C-700.80101117 2296.67261058 -707.11574638 2302.11716396 -713.77514648 2307.39111328 C-714.90546484 2308.30764427 -716.03569421 2309.22428505 -717.16577148 2310.14111328 C-749.93875369 2335.92968945 -788.28972845 2347.25695592 -829.92504883 2343.07470703 C-835.65265011 2342.25148299 -841.20735921 2340.9505099 -846.77514648 2339.39111328 C-847.42757324 2339.2198291 -848.08 2339.04854492 -848.75219727 2338.87207031 C-881.14020679 2330.21586546 -906.99599656 2306.31863397 -923.68676758 2277.94873047 C-944.66045999 2241.04209529 -949.50842474 2200.14146715 -950.33764648 2158.45361328 C-950.3809559 2156.40217441 -950.42457357 2154.35074203 -950.46850586 2152.29931641 C-950.57426689 2147.32998283 -950.67587843 2142.36058063 -950.77514648 2137.39111328 C-951.40202362 2137.58528839 -952.02890076 2137.7794635 -952.67477417 2137.97952271 C-976.9549428 2145.47916747 -1001.72407833 2151.02979814 -1026.77514648 2155.26611328 C-1027.89872559 2155.45705566 -1029.02230469 2155.64799805 -1030.17993164 2155.84472656 C-1033.70631319 2156.41246833 -1037.2350636 2156.91612589 -1040.77514648 2157.39111328 C-1041.78047928 2157.52984863 -1041.78047928 2157.52984863 -1042.80612183 2157.67138672 C-1058.16085231 2159.72005339 -1073.55088032 2159.70115304 -1089.01123047 2159.65185547 C-1092.61694451 2159.64045078 -1096.22236373 2159.64724925 -1099.82806778 2159.65872669 C-1119.30543563 2159.71153148 -1138.2354365 2159.00078032 -1157.40014648 2155.20361328 C-1158.48859863 2154.98930664 -1159.57705078 2154.775 -1160.69848633 2154.55419922 C-1216.13068318 2143.26171595 -1265.09255485 2118.03704485 -1305.15014648 2078.26611328 C-1306.06562256 2077.36006348 -1306.98109863 2076.45401367 -1307.92431641 2075.52050781 C-1313.96416312 2069.45157324 -1319.47759882 2063.11487373 -1324.77514648 2056.39111328 C-1325.5754126 2055.38781982 -1325.5754126 2055.38781982 -1326.3918457 2054.36425781 C-1373.00065068 1995.4070634 -1392.04177361 1919.4502002 -1401.52514648 1846.26611328 C-1401.62646881 1845.48638153 -1401.72779114 1844.70664978 -1401.83218384 1843.90328979 C-1404.66060889 1821.87391255 -1406.16758101 1799.81000175 -1407.12405014 1777.62590027 C-1407.21398446 1775.54769538 -1407.3058995 1773.46958489 -1407.39810181 1771.39147949 C-1409.46892856 1724.41489422 -1410.54021307 1677.39540184 -1411.77514648 1630.39111328 C-1412.3306015 1630.78248474 -1412.88605652 1631.1738562 -1413.45834351 1631.5770874 C-1416.02882429 1633.38669361 -1418.60119215 1635.19359983 -1421.17358398 1637.00048828 C-1422.04684326 1637.61585449 -1422.92010254 1638.2312207 -1423.81982422 1638.86523438 C-1443.15164884 1652.43236788 -1463.48380702 1664.18665098 -1484.77514648 1674.39111328 C-1485.50330566 1674.7452832 -1486.23146484 1675.09945312 -1486.98168945 1675.46435547 C-1518.22899808 1690.56488892 -1552.09526331 1699.88978391 -1586.90014648 1699.70361328 C-1587.66549713 1699.70079346 -1588.43084778 1699.69797363 -1589.21939087 1699.69506836 C-1623.8257488 1699.50419882 -1657.07792643 1690.3814262 -1683.77514648 1667.39111328 C-1684.66331055 1666.64087891 -1685.55147461 1665.89064453 -1686.46655273 1665.11767578 C-1712.45346649 1642.50310961 -1727.09286732 1610.59017267 -1729.77514648 1576.39111328 C-1732.88601965 1521.54345655 -1708.68918072 1472.14066512 -1674.77514648 1430.39111328 C-1674.05456055 1429.49134766 -1673.33397461 1428.59158203 -1672.59155273 1427.66455078 C-1663.82167634 1416.81554149 -1654.69199714 1406.29077024 -1645.22045898 1396.05126953 C-1643.22353856 1393.87890082 -1641.26685915 1391.68572165 -1639.33764648 1389.45361328 C-1635.28909566 1384.78666806 -1631.07542052 1380.27400998 -1626.87670898 1375.74267578 C-1624.03803508 1372.67901719 -1621.21748948 1369.59940015 -1618.40014648 1366.51611328 C-1610.03133431 1357.37106345 -1601.54205861 1348.33762946 -1593.05834961 1339.29931641 C-1585.92499531 1331.69867994 -1578.82828361 1324.06622875 -1571.77514648 1316.39111328 C-1571.06382568 1315.61791748 -1571.06382568 1315.61791748 -1570.33813477 1314.82910156 C-1564.84641045 1308.85869784 -1559.38081027 1302.86599578 -1553.96264648 1296.82861328 C-1551.69652332 1294.30350461 -1549.42324033 1291.784947 -1547.15014648 1289.26611328 C-1539.75169938 1281.03995694 -1532.5525761 1272.64808246 -1525.36010742 1264.2421875 C-1523.81503134 1262.43769476 -1522.26811669 1260.63479832 -1520.72045898 1258.83251953 C-1514.95004729 1252.11158813 -1509.2023873 1245.37237517 -1503.48999023 1238.60205078 C-1501.67745012 1236.45467701 -1499.85670113 1234.31470301 -1498.02905273 1232.18017578 C-1492.28044131 1225.4535975 -1486.7077811 1218.61680065 -1481.29858398 1211.61376953 C-1479.76382329 1209.63132204 -1478.20272227 1207.7266562 -1476.56420898 1205.82470703 C-1475.93256836 1205.08349609 -1475.30092773 1204.34228516 -1474.65014648 1203.57861328 C-1474.11131836 1202.97404297 -1473.57249023 1202.36947266 -1473.01733398 1201.74658203 C-1468.18683089 1192.58685447 -1472.39021162 1182.10083638 -1474.83764648 1172.76611328 C-1475.29195074 1170.99585986 -1475.74621406 1169.22559593 -1476.20043945 1167.45532227 C-1499.80347873 1076.40483776 -1531.86124444 986.49971945 -1571.83502197 896.50317383 C-1572.81731023 894.29638925 -1573.79802172 892.08890833 -1574.77856445 889.88134766 C-1582.09933111 873.40759983 -1589.49147775 856.96861736 -1597.01675415 840.58724976 C-1625.24058881 779.1197131 -1652.83776708 714.91570354 -1661.77514648 647.39111328 C-1661.95247314 646.15361328 -1662.1297998 644.91611328 -1662.3125 643.64111328 C-1664.25439917 628.87800288 -1664.11557412 614.0294175 -1664.09082031 599.16845703 C-1664.08619216 596.15723725 -1664.09311179 593.14642167 -1664.11132812 590.13525391 C-1664.24340738 568.07623631 -1663.55541626 546.47088427 -1658.08764648 524.95361328 C-1657.83345947 523.93050049 -1657.57927246 522.9073877 -1657.31738281 521.85327148 C-1652.57439107 503.31145311 -1646.18524255 485.57742095 -1637.77514648 468.39111328 C-1637.39664551 467.60961914 -1637.01814453 466.828125 -1636.62817383 466.02294922 C-1627.75991898 447.89613123 -1616.52294103 431.02137093 -1603.77514648 415.39111328 C-1603.3568457 414.87129883 -1602.93854492 414.35148437 -1602.50756836 413.81591797 C-1590.27283927 398.69116718 -1576.35228755 384.08512749 -1560.77514648 372.39111328 C-1559.61529763 371.48092104 -1558.45652419 370.56935746 -1557.29858398 369.65673828 C-1484.37307801 312.83215357 -1386.15264446 295.67467332 -1233.02514648 292.14111328 C-1231.7644635 292.18235321 -1230.50378052 292.22359314 -1229.20489502 292.26608276 C-1202.0573353 293.1660402 -1174.93024537 294.47222004 -1147.80328083 295.85149574 C-1108.8060582 297.83367706 -1069.91734508 298.6034301 -1030.86808109 298.62992483 C-1030.1900616 298.63039437 -1029.5120421 298.6308639 -1028.81347656 298.63134766 C-1028.13460357 298.63181609 -1027.45573057 298.63228452 -1026.75628567 298.63276714 C-1021.98135287 298.63712106 -1017.20653043 298.65211049 -1012.43164062 298.67236328 C-979.21215048 298.81006618 -946.21406841 298.28530311 -913.09191513 295.57958221 C-910.93169959 295.40384886 -908.77114357 295.23375881 -906.61026001 295.06646729 C-898.99143365 294.47283412 -891.38222659 293.80669789 -883.77514648 293.07861328 C-882.6731189 292.97473297 -881.57109131 292.87085266 -880.43566895 292.76382446 C-783.90874994 283.61795444 -688.77330434 265.16825416 -397.54467773 149.93408203 C-393.70873273 147.87505118 -389.8459575 145.87034855 -385.97436523 143.87939453 C-385.36701035 143.56703857 -384.75965546 143.25468262 -384.13389587 142.93286133 C-382.87887438 142.28751947 -381.62384394 141.642195 -380.36880493 140.99688721 C-369.26113257 135.28166692 -358.23525454 129.43753397 -347.29077148 123.41455078 C-341.16575198 120.04556797 -335.00019612 116.75326752 -328.83764648 113.45361328 C-321.85354238 109.71259977 -314.91251702 105.92228065 -308.05615234 101.9519043 C-288.41422623 90.60459181 -268.04114437 80.56463278 -247.77514648 70.39111328 C-247.00912109 70.00638855 -246.2430957 69.62166382 -245.45385742 69.22528076 C-188.2907175 40.5611519 -128.80880236 17.90164602 -65.83764648 5.95361328 C-64.67587891 5.7310083 -63.51411133 5.50840332 -62.31713867 5.27905273 C-58.47842775 4.58501679 -54.63313447 3.96573939 -50.77514648 3.39111328 C-49.48010696 3.19575989 -49.48010696 3.19575989 -48.15890503 2.99645996 C-32.08043877 0.64047647 -16.24011101 -0.08187762 0 0 Z " fill="#000000" transform="translate(2200.775146484375,519.60888671875)"/>
<path d="M0 0 C8.19566396 0.0116474 16.39130591 0.0157395 24.58697772 0.01529354 C96.63408258 0.01189756 168.68557546 0.13789474 240.70493579 2.36021465 C243.7671121 2.45437096 246.82935074 2.54627135 249.89160419 2.63788265 C354.5149607 5.78647576 458.95884144 11.29577473 741.95685077 39.20059627 C742.98074908 39.35077205 744.0046474 39.50094784 745.05957294 39.6556744 C771.98641557 43.62287788 798.5208458 48.71436952 824.95685077 55.20059627 C826.03059955 55.46386715 826.03059955 55.46386715 827.12604022 55.73245662 C889.45900922 71.09032513 889.45900922 71.09032513 901.67950702 87.07950252 C903.6913669 90.42029738 904.4555347 92.28236535 903.95685077 96.20059627 C890.93165445 118.03950877 855.22847929 124.34002646 832.58185077 130.07559627 C743.14408432 152.44859438 650.41101279 159.97056093 277.47638202 182.92325252 C276.24868594 182.96776043 275.02098987 183.01226833 273.75609088 183.05812496 C250.58046495 183.8638829 227.39449094 184.36226461 204.20831561 184.73697323 C203.54954038 184.74766724 202.89076516 184.75836126 202.21202704 184.76937933 C168.88361457 185.30689495 135.55703621 185.36517375 102.22496724 185.36785334 C97.21394686 185.36836009 92.20292823 185.37068149 87.1919086 185.37335056 C70.43244281 185.38208654 53.67298324 185.38678094 36.91351517 185.38602009 C36.02353857 185.38598013 35.13356198 185.38594017 34.21661639 185.38589901 C33.32546525 185.38585813 32.43431411 185.38581725 31.51615839 185.38577513 C18.02535038 185.38539533 4.53456606 185.39327286 -8.95623517 185.40640682 C-162.43051276 185.55294159 -162.43051276 185.55294159 -224.30234265 183.33256572 C-229.16653455 183.1609651 -234.03119033 183.0061428 -238.89595628 182.85182899 C-251.34877328 182.45593653 -263.79875216 182.00371839 -276.24800992 181.50895351 C-279.42305326 181.38294057 -282.59816258 181.25869028 -285.77328229 181.13461727 C-378.40807184 177.50015283 -470.96771199 172.07991429 -860.04314923 100.20059627 C-862.12460388 97.0784143 -862.65282454 95.12000501 -862.54314923 91.38419002 C-861.19353589 85.49017551 -855.67759354 81.4531742 -850.98064923 78.07559627 C-845.00083073 74.35949466 -838.59891336 71.70228213 -832.04314923 69.20059627 C-831.04130597 68.81266903 -831.04130597 68.81266903 -830.01922345 68.41690487 C-749.12057553 37.73509337 -655.64563178 32.12514818 -468.76525617 15.53592342 C-464.90957665 15.2628723 -461.05427793 14.98484265 -457.19909692 14.70485061 C-381.76159236 9.22810022 -306.1630935 6.12653414 -230.57504773 3.60191005 C-228.05525464 3.51767938 -225.53549901 3.43239379 -223.01574445 3.34701961 C-212.40688028 2.99072619 -201.79701446 2.6831068 -191.18606305 2.3961224 C-186.69971627 2.27457827 -182.21353952 2.14833415 -177.72744602 2.01786572 C-118.48001015 0.29599238 -59.27032618 -0.0883021 0 0 Z " fill="#000000" transform="translate(1713.0431492328644,3122.7994037270546)"/>
<path d="M0 0 C3.92403483 0.73005299 5.4792416 3.39593966 7.6875 6.5 C9.1895264 8.98565468 10.50139658 11.54629622 11.796875 14.14453125 C12.16798401 14.87258469 12.53909302 15.60063812 12.92144775 16.35075378 C14.10072918 18.66773365 15.26949527 20.9898184 16.4375 23.3125 C17.20498747 24.82784984 17.9732116 26.34282681 18.7421875 27.85742188 C19.12234009 28.60635712 19.50249268 29.35529236 19.89416504 30.12692261 C21.43142782 33.15102276 22.9735784 36.17261956 24.51635742 39.19390869 C25.31292729 40.76243065 26.10390458 42.33380262 26.88989258 43.90765381 C28.06545719 46.2612227 29.2577843 48.60564568 30.453125 50.94921875 C30.98048248 52.02221977 30.98048248 52.02221977 31.51849365 53.11689758 C33.66793485 57.28407247 35.29892534 59.73919421 39.6875 61.5 C42.83557439 62.26268786 45.99906051 62.7536474 49.203125 63.21875 C50.13235779 63.36276245 51.06159058 63.5067749 52.01898193 63.65515137 C54.99036628 64.11362584 57.96372657 64.55731327 60.9375 65 C64.81823008 65.59034995 68.69817794 66.18577756 72.578125 66.78125 C73.52216187 66.92578613 74.46619873 67.07032227 75.43884277 67.21923828 C81.41898871 68.13866272 87.39458215 69.07911105 93.359375 70.09375 C94.04904358 70.20658325 94.73871216 70.3194165 95.44927979 70.43566895 C98.83678595 71.0254996 101.71484204 71.74163234 104.6875 73.5 C105.01953125 75.62109375 105.01953125 75.62109375 104.6875 78.5 C102.98003857 80.71999784 101.33637439 82.59426244 99.375 84.5625 C98.26774298 85.7143766 97.16098298 86.86673113 96.0546875 88.01953125 C95.49104492 88.59912598 94.92740234 89.1787207 94.34667969 89.77587891 C91.83935624 92.38134068 89.42418623 95.06748818 87 97.75 C83.03616919 102.10165071 78.93001038 106.28230737 74.7421875 110.41796875 C72.16669694 113.0277339 69.75130205 115.73949473 67.3984375 118.55078125 C65.6875 120.5 65.6875 120.5 63.6640625 122.35546875 C59.92404461 125.92683384 59.92404461 125.92683384 58.48803711 130.73144531 C59.82636968 142.74368601 61.8214444 154.67145687 63.75170898 166.60058594 C67.60218574 190.48755732 67.60218574 190.48755732 66.6875 198.5 C65.6875 199.5 65.6875 199.5 63.9309082 199.51074219 C57.95618558 198.94412348 53.25741069 197.33998558 47.875 194.75 C47.04476318 194.36384521 46.21452637 193.97769043 45.35913086 193.57983398 C43.50669053 192.7167938 41.65697303 191.84789265 39.80957031 190.97412109 C35.69297413 189.03042327 31.56344394 187.1149322 27.43348694 185.19985962 C24.31015442 183.75145558 21.18789267 182.30091411 18.0690918 180.84277344 C16.92351807 180.30813477 15.77794434 179.77349609 14.59765625 179.22265625 C13.06830444 178.50734741 13.06830444 178.50734741 11.50805664 177.77758789 C6.11329383 175.33399802 2.53569796 173.74934923 -3.3125 175.5 C-7.66999538 177.25885479 -11.89021669 179.27861889 -16.125 181.3125 C-17.35839958 181.89394838 -18.59237742 182.47417158 -19.8269043 183.05322266 C-25.52796702 185.73188385 -31.21102304 188.44650784 -36.8795929 191.19322205 C-38.65806273 192.05218862 -40.44069808 192.90251335 -42.22338867 193.75268555 C-44.44700346 194.81318366 -46.6637176 195.88830658 -48.87231445 196.97973633 C-58.36235073 201.48611879 -58.36235073 201.48611879 -64.3125 199.5 C-67.51405267 193.09689465 -64.67038535 183.27561902 -63.5625 176.52734375 C-63.29614746 174.84361412 -63.29614746 174.84361412 -63.02441406 173.12586975 C-62.46032398 169.56199955 -61.88741959 165.99963811 -61.3125 162.4375 C-60.73785387 158.87175329 -60.16538417 155.3057392 -59.60058594 151.73841858 C-59.25028951 149.5259307 -58.89445413 147.31431036 -58.53222656 145.10374451 C-56.52246251 135.51356896 -56.52246251 135.51356896 -58.59765625 126.46875 C-59.18417969 125.9840625 -59.77070313 125.499375 -60.375 125 C-62.95653016 122.71159179 -65.28429432 120.45934053 -67.5 117.8125 C-70.60868119 114.1985704 -73.92388311 110.8474068 -77.3125 107.5 C-81.23177445 103.62345719 -85.01781063 99.70784695 -88.58984375 95.50390625 C-91.40818629 92.22542615 -94.36293421 89.0695476 -97.296875 85.89453125 C-100.72082312 81.82693397 -102.77701204 78.91930713 -102.3125 73.5 C-95.41680137 70.4342577 -88.3941974 69.40427308 -80.97354126 68.36679077 C-78.78022425 68.05795533 -76.58963872 67.73391154 -74.39916992 67.40551758 C-67.61342737 66.39172616 -60.8269371 65.42917752 -54.01953125 64.5703125 C-51.88798803 64.27627936 -49.75647539 63.98202442 -47.625 63.6875 C-46.65949219 63.5831665 -45.69398438 63.47883301 -44.69921875 63.37133789 C-40.06581252 62.70328283 -37.1071701 61.94044062 -34.11328125 58.21484375 C-30.74724595 52.95129727 -27.93614705 47.33378081 -25.13314819 41.75576782 C-23.5154512 38.53838478 -21.87144748 35.33445917 -20.23046875 32.12890625 C-19.7378933 31.16451881 -19.7378933 31.16451881 -19.23536682 30.1806488 C-16.07762817 24.01048103 -12.81508884 17.89957393 -9.5 11.8125 C-9.00290527 10.8932373 -8.50581055 9.97397461 -7.99365234 9.02685547 C-7.30650146 7.77026123 -7.30650146 7.77026123 -6.60546875 6.48828125 C-6.2086792 5.76165283 -5.81188965 5.03502441 -5.40307617 4.28637695 C-3.86979307 1.7748407 -2.92220958 0.6318291 0 0 Z " fill="#000000" transform="translate(2845.3125,954.5)"/>
<path d="M0 0 C15.99465465 11.66360836 26.91644939 25.97560168 31.328125 45.484375 C33.09477714 60.29307677 33.12652048 75.16120412 26.7265625 88.82421875 C26.23027344 89.93667969 25.73398438 91.04914063 25.22265625 92.1953125 C17.11128616 108.78941662 2.07777931 122.40767232 -15.2734375 128.82421875 C-23.64352077 131.49573432 -31.51798436 132.31890995 -40.2734375 132.26171875 C-41.35882812 132.28169922 -42.44421875 132.30167969 -43.5625 132.32226562 C-60.66723572 132.31205994 -78.09174784 123.74747513 -90.36572266 111.97998047 C-94.6536229 107.64996826 -98.1805828 103.06378495 -101.2734375 97.82421875 C-101.80582031 96.92316406 -102.33820312 96.02210938 -102.88671875 95.09375 C-111.60441436 79.06443873 -113.96140798 60.74961289 -109.7109375 43.01171875 C-106.08711168 31.21203328 -100.57804731 20.98417227 -92.2734375 11.82421875 C-91.58507813 11.05464844 -90.89671875 10.28507812 -90.1875 9.4921875 C-65.97205763 -16.16569097 -28.90182558 -19.21040197 0 0 Z " fill="#000000" transform="translate(2726.2734375,385.17578125)"/>
<path d="M0 0 C13.02000752 13.14836111 21.38010047 29.27751951 21.43896484 47.87866211 C21.4215625 49.74651367 21.4215625 49.74651367 21.40380859 51.65209961 C21.41541016 52.88959961 21.42701172 54.12709961 21.43896484 55.40209961 C21.4041928 66.41324644 19.55267404 76.43042643 14.52880859 86.27709961 C14.18769043 86.9493457 13.84657227 87.6215918 13.49511719 88.31420898 C9.73020296 95.3589974 4.81210225 100.82824184 -0.97119141 106.27709961 C-1.75107422 107.01444336 -2.53095703 107.75178711 -3.33447266 108.51147461 C-18.89897541 122.00942994 -37.30878503 126.52214941 -57.50195312 125.48413086 C-72.59599614 124.21858325 -86.88962302 116.23850945 -97.97119141 106.27709961 C-98.58220703 105.75889648 -99.19322266 105.24069336 -99.82275391 104.70678711 C-113.09429574 92.64725823 -119.94449197 74.7242274 -121.18994141 57.19897461 C-121.85596715 34.66510372 -113.01219141 16.08493388 -97.90869141 -0.34790039 C-71.72549059 -25.44952321 -26.14894952 -25.06845028 0 0 Z " fill="#000000" transform="translate(2884.97119140625,2467.722900390625)"/>
<path d="M0 0 C4.29179208 3.37047025 8.16844513 7.12207231 12 11 C12.59425781 11.58394531 13.18851562 12.16789062 13.80078125 12.76953125 C27.44264837 27.29389112 31.59389911 46.7044588 31.26953125 66.01171875 C30.53076796 84.97573593 21.71393064 101.22666817 8 114 C-7.59294427 127.37507992 -25.37912744 132.27683929 -45.54736328 131.19824219 C-65.2619538 129.60474751 -81.70516959 119.31281942 -94.8203125 105.015625 C-107.2403094 89.79950315 -111.85044116 70.23325059 -110 51 C-107.92505967 35.79739943 -101.2537798 22.37944425 -91 11 C-90.44699219 10.36578125 -89.89398438 9.7315625 -89.32421875 9.078125 C-66.89382496 -15.11886305 -26.79288016 -18.09519145 0 0 Z " fill="#000000" transform="translate(440,1490)"/>
<path d="M0 0 C3.6344989 2.74244096 6.83195477 5.73530254 10 9 C10.78117187 9.78375 11.56234375 10.5675 12.3671875 11.375 C27.49321102 27.26496411 31.4621745 45.08558255 31.20703125 66.3125 C30.71150513 85.01481095 21.08625794 100.50478137 7.8125 113.1875 C-9.74699855 128.11154153 -28.70845745 130.98916512 -51 130 C-66.79534556 128.32498987 -80.26530458 119.14693411 -91 108 C-91.66386719 107.35546875 -92.32773438 106.7109375 -93.01171875 106.046875 C-105.80083926 92.82666054 -110.62841252 74.92855784 -110.40063477 57.04272461 C-109.7942069 37.58495754 -102.50154828 23.4613651 -89 10 C-88.38125 9.32195312 -87.7625 8.64390625 -87.125 7.9453125 C-64.56831926 -16.45494311 -26.84009953 -16.30382996 0 0 Z " fill="#000000" transform="translate(1870,205)"/>
<path d="M0 0 C1.20398438 -0.02900391 2.40796875 -0.05800781 3.6484375 -0.08789062 C21.32459744 -0.21143368 35.40893445 6.83869463 48.5 18.3125 C49.19996094 18.91707031 49.89992188 19.52164062 50.62109375 20.14453125 C61.83863735 30.53114569 69.56448576 46.41143604 70.67700195 61.75341797 C71.2548385 85.81075617 66.60561362 104.48111161 49.75 122.4375 C41.97392498 129.95935718 32.62111236 134.71943931 22.5 138.3125 C21.15228516 138.79396484 21.15228516 138.79396484 19.77734375 139.28515625 C1.41632242 144.83736382 -17.19048314 141.32544479 -33.73046875 132.48046875 C-51.48391292 122.54367439 -62.35176498 106.35067364 -67.80859375 87.1171875 C-72.37848745 68.57942663 -69.28075383 50.10411267 -59.7109375 33.7265625 C-56.5743402 28.69289743 -52.68472373 24.48957341 -48.5 20.3125 C-47.94957031 19.69117188 -47.39914062 19.06984375 -46.83203125 18.4296875 C-34.2793788 4.6062727 -17.8635167 0.13985008 0 0 Z " fill="#000000" transform="translate(938.5,263.6875)"/>
<path d="M0 0 C1.01320313 0.49628906 2.02640625 0.99257812 3.0703125 1.50390625 C19.68193582 10.31953755 33.74669872 25.93507906 39.62231445 43.90307617 C41.36693267 50.55760427 41.40657772 57.30855392 41.42553711 64.15454102 C41.43738194 66.16743735 41.48664933 68.17720492 41.53710938 70.18945312 C41.63658497 88.61052452 33.55599105 104.29224947 20.81640625 117.30859375 C5.78942371 131.6686367 -12.52730478 136.584188 -32.78125 136.2734375 C-51.47056258 135.58250757 -66.11555016 127.05961607 -79 114 C-79.60585938 113.39285156 -80.21171875 112.78570313 -80.8359375 112.16015625 C-95.34155482 96.46492481 -98.66595832 77.15343824 -98.12744141 56.69970703 C-97.47059952 42.78522898 -90.18545461 29.23095351 -81 19 C-80.28328125 18.19046875 -79.5665625 17.3809375 -78.828125 16.546875 C-59.43487585 -4.11390678 -26.24027809 -13.97348142 0 0 Z " fill="#000000" transform="translate(433,2403)"/>
<path d="M0 0 C10.8023101 8.97656755 19.348159 22.88797564 21 37 C21.9671367 53.08501044 19.6363966 67.69332024 8.6875 80.1875 C7.14387106 81.8098337 5.58213356 83.41519391 4 85 C3.360625 85.65097656 2.72125 86.30195313 2.0625 86.97265625 C-9.13819333 97.58998013 -22.54624071 100.65115824 -37.453125 100.30859375 C-52.12626697 99.57126531 -63.79874567 92.07973074 -73.7109375 81.6640625 C-85.10037849 68.40877452 -89.18283715 53.21872934 -88 36 C-85.18694343 21.03657259 -76.75914763 7.61283726 -64.296875 -1.20507812 C-43.60444159 -14.73298536 -20.10259582 -15.13899191 0 0 Z " fill="#000000" transform="translate(1935,2823)"/>
<path d="M0 0 C1.5169043 -0.02320313 1.5169043 -0.02320313 3.06445312 -0.046875 C10.14369721 -0.01040755 15.59152923 1.40340604 21.9375 4.5 C22.865625 4.94601562 23.79375 5.39203125 24.75 5.8515625 C38.85399662 14.06210339 46.8612436 26.2451987 51.9375 41.5 C55.62947132 55.529491 53.1994681 71.18232898 46.25 83.6875 C37.85729199 96.65613173 27.16019491 105.3152133 12.1640625 109.22265625 C-3.14846829 112.32210953 -17.45796075 109.63079152 -30.5859375 101.31640625 C-41.90874182 93.0118258 -51.64543089 80.59428658 -54.0625 66.5 C-55.67954276 46.67178069 -52.21110808 32.10595788 -39.37890625 16.4453125 C-28.91207763 5.1501737 -15.16173903 -0.23280981 0 0 Z " fill="#000000" transform="translate(240.0625,1161.5)"/>
<path d="M0 0 C1.86645508 0.09741211 1.86645508 0.09741211 4 1 C5.59643555 3.33813477 5.59643555 3.33813477 7.13671875 6.44140625 C7.7100293 7.57570068 8.28333984 8.70999512 8.87402344 9.87866211 C9.47855096 11.10659068 10.0830425 12.33453696 10.6875 13.5625 C11.62087436 15.42023519 12.55940025 17.27529894 13.49862671 19.13008118 C14.12134293 20.35989337 14.74262339 21.59043363 15.36245728 22.82170105 C18.48847839 29.01637788 21.87439763 35.04321753 25.328125 41.05859375 C27 44 27 44 27.984375 46.28515625 C29.32129439 48.54249322 30.63762192 48.85012562 33 50 C34.95841995 51.20206828 36.90796047 52.41864872 38.8515625 53.64453125 C46.4397783 58.37180817 54.30416637 62.51414615 62.22314453 66.65356445 C68.76794917 70.08200185 75.1333395 73.4745377 81 78 C77.9920802 81.31195968 75.00999947 83.26821906 71.046875 85.3203125 C70.47366013 85.62088562 69.90044525 85.92145874 69.30986023 86.23114014 C68.0889271 86.87130602 66.86644531 87.50852568 65.64254761 88.14300537 C55.43080745 93.44161659 45.45016538 98.95194969 35.80859375 105.2421875 C33 107 33 107 30 108 C29.27155943 109.6406086 28.61746943 111.3144871 28 113 C26.82748274 115.12580444 25.62214046 117.23365207 24.39453125 119.328125 C21.42358102 124.44861525 18.57147106 129.61549805 15.82421875 134.859375 C15.48286896 135.50886108 15.14151917 136.15834717 14.78982544 136.82751465 C13.39579457 139.48267832 12.00459434 142.13922439 10.62280273 144.80078125 C9.59251779 146.78226238 8.55291156 148.7586091 7.51171875 150.734375 C6.60619263 152.47025879 6.60619263 152.47025879 5.68237305 154.24121094 C4 157 4 157 1 159 C-4.88946816 147.93648715 -10.652641 136.82580534 -16.15551758 125.56396484 C-18.55124836 120.70779025 -21.08452301 116.09152396 -24.08862305 111.58276367 C-25 110 -25 110 -25 108 C-25.82371094 107.59382446 -25.82371094 107.59382446 -26.6640625 107.17944336 C-29.25757028 105.86994962 -31.81615268 104.50494392 -34.375 103.12890625 C-35.96344727 102.27486206 -35.96344727 102.27486206 -37.58398438 101.40356445 C-41.66071687 99.2064061 -45.73616406 97.00687991 -49.80969238 94.80378723 C-53.56657311 92.77223221 -57.32903482 90.75136479 -61.09375 88.734375 C-62.89609453 87.76090011 -64.69819347 86.78697033 -66.5 85.8125 C-67.3353125 85.367854 -68.170625 84.92320801 -69.03125 84.46508789 C-69.794375 84.0499292 -70.5575 83.63477051 -71.34375 83.20703125 C-72.00568359 82.8510083 -72.66761719 82.49498535 -73.34960938 82.12817383 C-75 81 -75 81 -77 78 C-71.07230364 73.85193865 -65.08059793 70.37605974 -58.5625 67.25 C-50.7817749 63.44802978 -43.17613079 59.4169538 -35.64868164 55.13574219 C-34.94864014 54.7390332 -34.24859863 54.34232422 -33.52734375 53.93359375 C-32.91624756 53.58353271 -32.30515137 53.23347168 -31.67553711 52.87280273 C-30 52 -30 52 -27 51 C-25.90288637 48.67458055 -25.90288637 48.67458055 -25 46 C-24.22617019 44.48918941 -23.42548693 42.991898 -22.6015625 41.5078125 C-22.12759033 40.64824951 -21.65361816 39.78868652 -21.1652832 38.90307617 C-20.65698975 37.98631104 -20.14869629 37.0695459 -19.625 36.125 C-14.527884 26.86968981 -9.58923197 17.54172392 -4.74658203 8.15087891 C-4.03091064 6.76715088 -4.03091064 6.76715088 -3.30078125 5.35546875 C-2.87966064 4.53715576 -2.45854004 3.71884277 -2.0246582 2.87573242 C-1 1 -1 1 0 0 Z " fill="#000000" transform="translate(2586,2697)"/>
<path d="M0 0 C14.33513397 -0.63545574 27.66735825 5.28486392 38.43359375 14.4921875 C48.68751546 24.2261005 55.62577122 36.43494397 56.30078125 50.72265625 C56.68347242 65.79643623 52.12336305 79.40924941 42.55859375 91.1796875 C32.80014066 101.22742279 20.56687173 107.5401752 6.58935547 107.81225586 C-14.70427171 107.76661193 -14.70427171 107.76661193 -24.81640625 101.2421875 C-25.64527344 100.71238281 -26.47414063 100.18257812 -27.328125 99.63671875 C-39.62763923 90.84538515 -47.34517215 78.92456956 -50.81640625 64.2421875 C-52.50899322 49.20885801 -50.27502538 34.78141792 -40.80078125 22.57421875 C-40.1459375 21.80464844 -39.49109375 21.03507813 -38.81640625 20.2421875 C-38.1203125 19.40042969 -37.42421875 18.55867187 -36.70703125 17.69140625 C-27.09056954 7.05843936 -14.14790067 1.21660172 0 0 Z " fill="#000000" transform="translate(442.81640625,649.7578125)"/>
<path d="M0 0 C0.73863281 0.32871094 1.47726563 0.65742187 2.23828125 0.99609375 C15.2255553 7.47851551 24.85650801 18.97439899 29.91015625 32.421875 C34.20186503 45.91580585 32.59157673 59.32383076 26.875 72.0625 C19.93887563 85.16406825 7.84371236 94.35282115 -6.125 98.75 C-20.16754666 102.25579441 -33.72166836 99.67442346 -46.3125 92.8125 C-59.22495434 84.73146999 -67.04372615 73.38720379 -70.5546875 58.67578125 C-72.87497072 44.73372856 -70.1701159 30.650752 -62 19 C-47.56975887 0.47546427 -22.77893973 -10.55609402 0 0 Z " fill="#000000" transform="translate(3031,820)"/>
<path d="M0 0 C2.27275324 1.68366168 4.36937692 3.45292937 6.4609375 5.35546875 C7.08613281 5.90074219 7.71132812 6.44601562 8.35546875 7.0078125 C17.99553072 15.93379581 23.35180861 28.22114108 23.93383789 41.3112793 C24.11945408 55.31275986 19.66215005 67.45535169 10.20703125 77.828125 C-0.79491931 88.4062444 -13.26273684 92.7760491 -28.26342773 92.72119141 C-41.36335066 92.44598825 -52.46432382 87.18536244 -62.1640625 78.48046875 C-71.97509385 68.12922075 -76.79775828 54.61016966 -76.44140625 40.484375 C-75.47001463 26.20163988 -69.2855187 13.95174513 -58.5390625 4.35546875 C-55.03213217 1.65502833 -51.44849117 -0.57451073 -47.5390625 -2.64453125 C-46.745 -3.07894531 -45.9509375 -3.51335937 -45.1328125 -3.9609375 C-31.12809146 -10.32067633 -12.66978391 -8.20612158 0 0 Z " fill="#000000" transform="translate(1443.5390625,462.64453125)"/>
<path d="M0 0 C10.68338855 8.0360386 18.44583957 18.71534311 21 32 C22.12317918 42.53625632 21.46077636 52.2724503 17 62 C16.57589844 62.94359375 16.15179687 63.8871875 15.71484375 64.859375 C9.17030373 78.05783453 -0.80224813 84.49625667 -14 90 C-26.27478022 93.51837501 -40.79936287 91.75246176 -52 86 C-55.29323207 83.92757743 -58.13737687 81.62694532 -61 79 C-61.60070312 78.52433594 -62.20140625 78.04867187 -62.8203125 77.55859375 C-71.39383651 70.19612806 -77.26206338 56.34052747 -78.37109375 45.30859375 C-78.6445254 29.36913709 -73.70038555 17.12757305 -62.61328125 5.49609375 C-44.8852575 -11.39701523 -20.3878916 -13.66168103 0 0 Z " fill="#000000" transform="translate(740,2736)"/>
<path d="M0 0 C0.73734375 0.4125 1.4746875 0.825 2.234375 1.25 C14.16078743 8.48809858 23.12702856 19.21211849 27.39135742 32.4909668 C28.4696079 36.93588461 28.48719194 41.32069453 28.4375 45.875 C28.42992676 46.84663086 28.42235352 47.81826172 28.41455078 48.81933594 C28.25215238 55.8771467 27.40381283 61.7242201 24 68 C23.5875 68.84304688 23.175 69.68609375 22.75 70.5546875 C16.26843849 82.67078827 5.4587245 89.7348887 -7.29296875 94.13671875 C-21.51962803 97.44977639 -36.27972056 95.1847232 -48.8125 87.8125 C-59.59920344 80.39664139 -65.86320038 70.33394864 -69.375 57.75 C-72.00995783 42.84601975 -69.92703099 29.09609258 -61.671875 16.3046875 C-48.73804246 -1.5246611 -20.16346816 -12.31356834 0 0 Z " fill="#000000" transform="translate(3067,1975)"/>
<path d="M0 0 C0.97163086 0.00829834 1.94326172 0.01659668 2.94433594 0.02514648 C16.44082113 0.34363089 25.92571284 5.59697609 35.8125 14.625 C46.3836944 25.77098748 49.60566964 38.26658249 49.47680664 53.10888672 C49.10446701 66.84036009 43.71953533 77.28814293 34.38671875 87.33203125 C23.22370712 97.72385036 11.51587123 100.2290762 -3.23828125 99.78515625 C-16.48284364 99.03607194 -27.84177909 92.33025559 -36.8359375 82.859375 C-44.93886841 73.23520419 -48.46113711 63.17411002 -48.375 50.6875 C-48.36927979 49.72102539 -48.36355957 48.75455078 -48.35766602 47.75878906 C-47.97813274 32.50078466 -40.83713192 20.61387968 -29.90625 10.1875 C-21.00948172 2.52259194 -11.61226364 -0.12770674 0 0 Z " fill="#000000" transform="translate(232.875,1851.5625)"/>
<path d="M0 0 C2.25215573 1.67963803 4.31383733 3.4568309 6.3828125 5.35546875 C6.98351563 5.83113281 7.58421875 6.30679687 8.203125 6.796875 C16.56721834 13.97949327 22.05797281 26.64243825 23.26953125 37.4296875 C23.86155319 52.72018509 20.12637789 65.27060721 10.1953125 76.921875 C1.93497969 85.80438031 -8.32000582 91.64897605 -20.5625 92.69140625 C-37.58821897 93.06166253 -49.36213238 88.27847448 -61.8671875 76.66796875 C-71.20686622 67.03458944 -75.41072536 54.62066113 -75.6171875 41.35546875 C-75.00815831 27.90607407 -69.3863825 16.20068302 -60.078125 6.54296875 C-43.40408447 -8.27840061 -19.3663663 -12.16901524 0 0 Z " fill="#000000" transform="translate(3147.6171875,1264.64453125)"/>
<path d="M0 0 C2.2578125 0.10546875 2.2578125 0.10546875 5 1 C6.54364341 3.121753 7.69622474 5.00235576 8.875 7.3125 C9.56862391 8.59265741 10.26264133 9.87260168 10.95703125 11.15234375 C11.47064209 12.12083252 11.47064209 12.12083252 11.99462891 13.10888672 C21.40268702 30.80553998 31.57286026 38.91587944 49.24951172 47.89233398 C49.95092285 48.25270752 50.65233398 48.61308105 51.375 48.984375 C52.00148438 49.30116211 52.62796875 49.61794922 53.2734375 49.94433594 C55.14555888 51.08899839 56.51278435 52.39531256 58 54 C56.73909668 57.78270995 55.67034525 58.01349317 52.22265625 59.85546875 C51.23330078 60.39623047 50.24394531 60.93699219 49.22460938 61.49414062 C47.15198584 62.60406317 45.07907922 63.71345731 43.00585938 64.82226562 C27.08843787 73.5240627 18.13716399 84.08257593 10.14428711 100.16186523 C6.43770747 107.51645937 6.43770747 107.51645937 3 110 C0.984375 110.203125 0.984375 110.203125 -1 109 C-2.4299391 106.58472472 -3.60317489 104.29474578 -4.75 101.75 C-5.45013297 100.28439925 -6.15463848 98.8208801 -6.86328125 97.359375 C-7.2185791 96.62525391 -7.57387695 95.89113281 -7.93994141 95.13476562 C-16.82607565 77.23970394 -29.50211917 69.57469312 -46.3203125 60.13671875 C-47.22523438 59.61722656 -48.13015625 59.09773438 -49.0625 58.5625 C-49.83722656 58.13066406 -50.61195313 57.69882813 -51.41015625 57.25390625 C-52.19712891 56.63322266 -52.19712891 56.63322266 -53 56 C-53 55.01 -53 54.02 -53 53 C-52.0255896 52.50971313 -52.0255896 52.50971313 -51.03149414 52.00952148 C-48.03667635 50.49547323 -45.04965108 48.96661516 -42.0625 47.4375 C-41.04091797 46.92380859 -40.01933594 46.41011719 -38.96679688 45.88085938 C-22.51770884 37.41982687 -14.19898465 27.12744536 -6.00732422 10.96582031 C-4.10541785 7.25419887 -2.0474541 3.63257986 0 0 Z " fill="#000000" transform="translate(2407,168)"/>
<path d="M0 0 C3.40478188 12.49547947 5.78827887 25.10777779 8.03710938 37.85522461 C8.62595423 41.19290876 9.22242673 44.52915901 9.8203125 47.86523438 C15.05173472 77.15405342 15.05173472 77.15405342 15 84 C7.21611138 83.44688666 -0.42910062 82.57546112 -8.125 81.29296875 C-9.65245598 81.0447361 -9.65245598 81.0447361 -11.21076965 80.79148865 C-14.47449311 80.26070784 -17.73722905 79.72410148 -21 79.1875 C-25.48253298 78.45628678 -29.96569113 77.72899445 -34.44921875 77.00390625 C-36.08729744 76.73879242 -36.08729744 76.73879242 -37.75846863 76.46832275 C-47.53369317 74.89560979 -57.32395306 73.46841596 -67.14257812 72.19213867 C-68.13322266 72.05912354 -69.12386719 71.9261084 -70.14453125 71.7890625 C-70.97315674 71.68287598 -71.80178223 71.57668945 -72.65551758 71.46728516 C-75.27007652 70.94617032 -77.5577654 70.05702584 -80 69 C-79.56244512 64.61403318 -76.63050542 62.21680057 -73.625 59.3125 C-73.08407715 58.78140625 -72.5431543 58.2503125 -71.98583984 57.703125 C-67.81793806 53.66535613 -63.44706543 49.95032219 -58.90625 46.3359375 C-55.58489349 43.66635257 -52.35210849 40.9070816 -49.125 38.125 C-44.09659243 33.79568541 -39.04628142 29.4946649 -33.96972656 25.22192383 C-31.0337693 22.74376632 -28.12365557 20.24007398 -25.23828125 17.703125 C-5.09237972 0 -5.09237972 0 0 0 Z " fill="#000000" transform="translate(121,1450)"/>
<path d="M0 0 C11.78808829 1.09605017 23.34255887 11.38516857 33.0625 17.8125 C34.46222317 18.73533714 35.86204575 19.65802353 37.26196289 20.58056641 C40.81895828 22.92620704 44.3728593 25.27649247 47.92590332 27.62811279 C49.93882783 28.95953838 51.95304868 30.28897629 53.96777344 31.61767578 C57.05194944 33.65193933 60.13343064 35.69021554 63.21261597 37.73202515 C64.88466932 38.83999235 66.55863736 39.94506837 68.23266602 41.05004883 C74.36208126 45.12781726 80.26848504 49.3781904 86 54 C85 57 85 57 82.65283203 58.32421875 C72.24553738 62.66305206 61.6449765 66.35840922 50.96191406 69.95898438 C47.89930528 70.99180341 44.84010905 72.03425986 41.78125 73.078125 C32.16751559 76.34577598 22.52969779 79.52729755 12.8203125 82.5 C12.00037811 82.75539551 11.18044373 83.01079102 10.33566284 83.27392578 C9.191353 83.61786377 9.191353 83.61786377 8.02392578 83.96875 C7.36417755 84.16919922 6.70442932 84.36964844 6.02468872 84.57617188 C3.64471779 85.07437123 1.42471621 85.06950421 -1 85 C-1.85376588 76.44110358 -2.14746526 67.97726831 -2.1328125 59.37890625 C-2.13376923 58.11715073 -2.13472595 56.8553952 -2.13571167 55.55540466 C-2.13638801 52.90400663 -2.1350865 50.25270275 -2.13037109 47.60131836 C-2.12581294 44.91054069 -2.1258052 42.21983039 -2.13037109 39.52905273 C-2.13660022 35.60398395 -2.13578643 31.67897784 -2.1328125 27.75390625 C-2.13483673 26.56809464 -2.13686096 25.38228302 -2.13894653 24.16053772 C-2.07796783 2.07796783 -2.07796783 2.07796783 0 0 Z " fill="#000000" transform="translate(3218,1642)"/>
<path d="M0 0 C0.4930278 6.88626507 -1.32943674 13.01012879 -3.10546875 19.625 C-3.42655106 20.84469482 -3.74763336 22.06438965 -4.07844543 23.32104492 C-4.7595643 25.90092613 -5.4438864 28.47967628 -6.1340332 31.05712891 C-6.83343747 33.66982835 -7.52697716 36.28394893 -8.21411133 38.89990234 C-17.36104405 73.72208811 -17.36104405 73.72208811 -21 81 C-32.71312423 78.92977339 -45.51626218 65.92469459 -55 59 C-55.82081055 58.4028418 -56.64162109 57.80568359 -57.48730469 57.19042969 C-76.87164124 43.08105099 -76.87164124 43.08105099 -85 36 C-85.6084375 35.50886719 -86.216875 35.01773438 -86.84375 34.51171875 C-88 33 -88 33 -87.79360962 31.03416443 C-86.78738504 28.45502955 -85.94719511 28.06960553 -83.45849609 26.94165039 C-82.7331366 26.6110965 -82.0077771 26.2805426 -81.26043701 25.93997192 C-77.76477216 24.48634734 -74.2421586 23.16953513 -70.6640625 21.93359375 C-69.87891769 21.6579509 -69.09377289 21.38230804 -68.28483582 21.09831238 C-65.73366905 20.20517955 -63.17962136 19.320699 -60.625 18.4375 C-59.75104584 18.13374451 -58.87709167 17.82998901 -57.97665405 17.51702881 C-46.0261043 13.3645151 -34.05083304 9.2849443 -22.02679443 5.34988403 C-20.5589973 4.86937761 -19.09190407 4.38671525 -17.62554932 3.90182495 C-15.59268046 3.23133497 -13.55679998 2.5710436 -11.51953125 1.9140625 C-10.37589111 1.5423291 -9.23225098 1.1705957 -8.05395508 0.78759766 C-5.21000105 0.05415808 -2.91698584 -0.1667627 0 0 Z " fill="#000000" transform="translate(1724,508)"/>
<path d="M0 0 C7.9586371 4.97752049 15.63303606 12.4235502 18.5625 21.578125 C20.52453161 32.43937141 19.58055452 42.23927771 13.375 51.3984375 C7.2022323 59.14011699 -1.17706851 63.76878788 -11 65 C-20.25803851 65.61720257 -28.30490836 63.26723777 -35.89453125 57.8671875 C-42.400947 52.09711935 -47.4608859 43.80831499 -48.43359375 35.1328125 C-48.45714028 33.79708189 -48.45792923 32.46078192 -48.4375 31.125 C-48.42920166 30.42246094 -48.42090332 29.71992188 -48.41235352 28.99609375 C-48.09171778 19.1191438 -43.98558473 12.73001455 -37 6 C-26.43746617 -3.19023613 -13.03033876 -6.75558153 0 0 Z " fill="#000000" transform="translate(2378,2915)"/>
<path d="M0 0 C8.52076941 6.81661553 12.98409015 14.16889664 14.26171875 25.08984375 C14.89162819 35.44724796 12.64376923 43.65493011 5.76171875 51.625 C-2.34891391 59.46191682 -10.73817351 61.93704756 -21.78466797 61.859375 C-30.71834602 61.44689885 -37.95141441 58.00407732 -44.125 51.5 C-51.2266508 42.47100632 -54.02101675 33.6105246 -53.1875 22.25 C-51.26451852 12.08101321 -44.49116005 4.11752365 -36.1875 -1.75 C-23.95118586 -8.86511234 -11.80345036 -6.48032569 0 0 Z " fill="#000000" transform="translate(3146.1875,2267.75)"/>
<path d="M0 0 C7.91923243 6.22101628 13.87354802 16.22365599 15.41796875 26.18359375 C15.85203388 35.32789906 12.47847479 43.89867345 6.7265625 50.93359375 C-0.22502317 58.25443224 -7.75962377 61.74861401 -17.83984375 62.15234375 C-28.03834894 61.81584485 -35.40177589 58.34158418 -42.73046875 51.29296875 C-49.69682971 43.25485995 -52.38268111 35.32300907 -52.23046875 24.87109375 C-51.40144443 15.02033423 -46.03536504 8.28366139 -38.96484375 1.71484375 C-27.3850894 -7.40795165 -12.33408434 -8.06742295 0 0 Z " fill="#000000" transform="translate(644.96484375,2432.28515625)"/>
<path d="M0 0 C0.78632812 -0.020625 1.57265625 -0.04125 2.3828125 -0.0625 C10.67538709 -0.11760016 16.14673466 2.55250394 22.2578125 8.15234375 C29.80952827 16.10385623 33.69639834 23.36452893 33.60913086 34.37768555 C33.30719912 44.81391198 29.7467084 51.70427419 22.5625 59.1484375 C14.11391366 66.82637576 5.05489587 66.76888954 -5.80664062 66.37304688 C-13.91930525 65.85938067 -19.41471942 61.09113008 -24.75 55.25 C-32.06578378 45.34976176 -33.46820526 38.51473595 -32.75 26.25 C-31.39220277 18.1032166 -25.33040006 11.17364028 -19.109375 6.09375 C-12.55692566 1.41890311 -8.06452327 0.05186189 0 0 Z " fill="#000000" transform="translate(1850.75,2579.75)"/>
<path d="M0 0 C8.71121742 5.20334463 15.23510363 13.28798847 18.4375 22.9375 C19.50465433 32.98860472 18.4724431 41.97805639 12.7421875 50.44140625 C7.45969465 56.93224261 1.29077294 60.31974235 -6.5625 62.9375 C-17.17042797 63.84054559 -25.83410977 63.83155253 -34.5625 56.9375 C-41.1305127 51.15708626 -45.93765049 42.25769918 -46.80078125 33.52734375 C-47.04325508 24.86209488 -45.34662104 17.00484992 -39.8125 10.125 C-29.43402803 -0.7763169 -14.49580776 -6.7365487 0 0 Z " fill="#000000" transform="translate(3046.5625,556.0625)"/>
<path d="M0 0 C1.18408447 0.01643555 1.18408447 0.01643555 2.39208984 0.03320312 C11.22065017 0.36011957 16.94981899 3.33793579 23.4375 9.25 C30.58430539 17.07814383 32.8169388 24.00046994 32.57202148 34.44726562 C32.03033596 45.51295082 28.04969381 50.88289981 20.125 58.5625 C13.18967374 64.45277709 5.68243246 65.0175454 -3.11328125 64.87109375 C-13.61827615 64.00931328 -20.32936575 58.59955417 -27.1875 51 C-32.52048606 43.29679791 -33.74193311 35.77676053 -32.875 26.5625 C-30.45572978 16.65223646 -23.83777637 8.79453891 -15.18676758 3.53637695 C-10.03549389 0.72032984 -5.83895321 -0.11510257 0 0 Z " fill="#000000" transform="translate(1387.875,35.4375)"/>
<path d="M0 0 C8.49033045 5.0411337 15.60050244 12.69771423 18.25 22.3359375 C19.37493644 32.60660718 18.56458619 41.26824631 12.51953125 49.76953125 C7.45223905 55.92917386 1.25645782 60.85272679 -6.75 62.3359375 C-18.18134292 63.42136549 -26.55751738 61.7799713 -35.87109375 54.73046875 C-41.69596852 49.45676493 -45.58878849 43.11206955 -46.16015625 35.1953125 C-46.54568784 24.55814549 -45.57830961 17.42627888 -38.625 9.2109375 C-28.01696449 -2.03843349 -14.84157564 -6.88375712 0 0 Z " fill="#000000" transform="translate(221.75,873.6640625)"/>
<path d="M0 0 C7.93537179 4.66864374 15.30948423 11.92820816 18.203125 20.84375 C19.74427176 28.94904038 19.81127969 38.74975826 15.625 46.0625 C9.76340376 53.97327216 2.50441919 60.93164488 -7.375 63.0625 C-15.92541929 64.09468765 -22.94784648 62.41355724 -30.375 58.0625 C-37.40993371 52.53955204 -41.55613922 46.51908233 -44.375 38.0625 C-45.16762378 26.49798909 -44.65926447 18.05180814 -37.0625 8.8125 C-27.46704943 -1.48005595 -13.55597781 -6.1618081 0 0 Z " fill="#000000" transform="translate(2720.375,715.9375)"/>
<path d="M0 0 C8.95540347 4.70283758 15.81642825 12.114642 19.359375 21.5625 C21.49305817 29.57469802 20.93026774 37.64191364 17.4453125 45.16015625 C13.18144193 52.51470223 6.45734921 59.25117312 -1.73046875 62.078125 C-11.99130511 63.79760942 -21.48570759 62.88859436 -30.08984375 56.89453125 C-36.98934265 51.27985524 -40.80520193 45.07073669 -42.875 36.4375 C-43.63299092 28.12604138 -44.02564881 20.33050479 -38.875 13.4375 C-38.38902344 12.76332031 -37.90304688 12.08914062 -37.40234375 11.39453125 C-28.48566264 0.15909146 -13.89168123 -5.6829605 0 0 Z " fill="#000000" transform="translate(182.875,2166.5625)"/>
<path d="M0 0 C0.99 0.33 1.98 0.66 3 1 C3.7644043 2.86547852 3.7644043 2.86547852 4.32421875 5.37890625 C4.5444873 6.3440918 4.76475586 7.30927734 4.99169922 8.30371094 C5.22131348 9.37911133 5.45092773 10.45451172 5.6875 11.5625 C5.93516113 12.68043945 6.18282227 13.79837891 6.43798828 14.95019531 C7.31453489 18.96230796 8.16177509 22.97974313 9 27 C9.17029724 27.81450623 9.34059448 28.62901245 9.51605225 29.46820068 C10.82181021 35.72488998 12.10368673 41.98623024 13.375 48.25 C13.55598236 49.13511261 13.73696472 50.02022522 13.9234314 50.93215942 C14.44237492 53.47956882 14.95295445 56.02851003 15.4609375 58.578125 C15.61688889 59.33969406 15.77284027 60.10126312 15.93351746 60.88591003 C16.73935458 64.98496076 17.16241985 68.82325391 17 73 C11.57066043 72.37297251 6.97274894 70.56228452 1.96484375 68.5 C1.09661484 68.14791977 0.22838593 67.79583954 -0.66615295 67.43309021 C-3.46751572 66.29494818 -6.26507373 65.14777942 -9.0625 64 C-10.97301413 63.22111561 -12.88365875 62.44255122 -14.79443359 61.66430664 C-27.25513371 56.5794712 -39.68022411 51.4188488 -52 46 C-50.40083651 41.81833647 -47.31140816 39.23241071 -44.0625 36.3125 C-43.47839355 35.78068115 -42.89428711 35.2488623 -42.29248047 34.70092773 C-37.96136629 30.78832704 -33.49925848 27.06518537 -28.9453125 23.4140625 C-26.05793544 21.04748554 -23.24914841 18.61132347 -20.44580078 16.14672852 C-5.52720955 3.04195346 -5.52720955 3.04195346 0 0 Z " fill="#000000" transform="translate(1039,2897)"/>
<path d="M0 0 C5.92866769 4.5684106 11.90653821 9.91666218 13.8046875 17.390625 C14.93024765 27.96620055 13.91833195 36.21958986 7.4296875 44.703125 C1.23750198 51.04274351 -5.1365608 53.65872593 -13.9453125 53.828125 C-22.64806336 53.6813979 -28.6253152 50.95320716 -35.0703125 45.203125 C-40.11672629 39.67950896 -42.37013854 33.31717862 -42.6953125 25.890625 C-42.25080545 16.32698842 -38.61188668 9.73851771 -31.6015625 3.30859375 C-22.95096725 -3.58660474 -9.90430939 -6.03610272 0 0 Z " fill="#000000" transform="translate(2189.1953125,345.609375)"/>
<path d="M0 0 C5.19401697 0.4394253 9.32609651 2.3100308 13.953125 4.52734375 C14.6945575 4.87632217 15.43598999 5.2253006 16.19989014 5.58485413 C17.75799245 6.32017978 19.31438658 7.05913474 20.86914062 7.80151367 C23.25232293 8.93860835 25.64123457 10.06289698 28.03125 11.18554688 C29.54722825 11.90289978 31.06286556 12.62097374 32.578125 13.33984375 C33.2926886 13.67636459 34.0072522 14.01288544 34.74346924 14.35960388 C37.52999389 15.69537774 39.79802422 16.79802422 42 19 C42.17328728 24.93369252 40.40868736 30.88705156 38.78515625 36.54296875 C38.46145302 37.70110832 38.46145302 37.70110832 38.13121033 38.88264465 C37.44819057 41.31949501 36.75535723 43.75343087 36.0625 46.1875 C35.6016016 47.82990652 35.14131019 49.47248351 34.68164062 51.11523438 C31.0831529 63.91862403 31.0831529 63.91862403 29 70 C25.57231339 69.41236963 23.87409603 68.2684111 21.390625 65.8671875 C20.71773437 65.22523438 20.04484375 64.58328125 19.3515625 63.921875 C18.65804687 63.24640625 17.96453125 62.5709375 17.25 61.875 C15.88150877 60.55854266 14.51171823 59.24343463 13.140625 57.9296875 C12.11763306 56.94778442 12.11763306 56.94778442 11.07397461 55.94604492 C9.03334611 54.03128921 6.94806868 52.18626523 4.83203125 50.35546875 C1.54472495 47.5087791 -1.52411807 44.54833217 -4.5625 41.4375 C-8.55723837 37.39825201 -12.61335031 33.60680085 -17 30 C-13.55414635 22.73008926 -9.77063887 15.74037679 -5.6875 8.8125 C-5.24293457 8.05783447 -4.79836914 7.30316895 -4.34033203 6.52563477 C-1.14163602 1.14163602 -1.14163602 1.14163602 0 0 Z " fill="#000000" transform="translate(715,517)"/>
<path d="M0 0 C7.24397282 4.34929292 12.03561455 11.05437196 14.52734375 19.03125 C15.05835596 21.74586382 15.1534625 24.33988112 15.1953125 27.10546875 C15.22109375 28.12511719 15.246875 29.14476563 15.2734375 30.1953125 C14.87676437 33.78898219 14.27294704 35.3867204 11.9453125 38.16796875 C5.0572223 42.47946661 -2.93569339 44.6024392 -10.63525391 47.05957031 C-12.9199928 47.78986991 -15.20032224 48.5328462 -17.48046875 49.27734375 C-24.95749335 51.69632718 -32.28784228 53.85548 -40.0546875 55.16796875 C-39.32373805 47.63356668 -38.0999806 40.23813212 -36.7421875 32.79296875 C-36.54173828 31.63796875 -36.34128906 30.48296875 -36.13476562 29.29296875 C-32.41236611 8.87163149 -32.41236611 8.87163149 -25.0546875 2.16796875 C-17.34507487 -2.71172655 -8.45373015 -3.6450294 0 0 Z " fill="#000000" transform="translate(456.0546875,2705.83203125)"/>
<path d="M0 0 C2.10546446 7.22079895 4.20435929 14.44348453 6.29882812 21.66748047 C7.01120491 24.12168962 7.725051 26.57547279 8.44042969 29.02880859 C9.47202599 32.56755748 10.49822263 36.10783531 11.5234375 39.6484375 C11.84122162 40.73426117 12.15900574 41.82008484 12.48641968 42.93881226 C14.30698577 49.24870314 15.83753027 55.53547107 17 62 C9.30551442 60.68385738 2.04703477 58.54934602 -5.3515625 56.0859375 C-6.49160736 55.71143463 -7.63165222 55.33693176 -8.8062439 54.95108032 C-12.41430667 53.76446888 -16.01966559 52.56987229 -19.625 51.375 C-22.08446054 50.56457326 -24.54409432 49.75467208 -27.00390625 48.9453125 C-33.00462113 46.96961532 -39.00314209 44.98737155 -45 43 C-45 39 -45 39 -42.875 36.44921875 C-41.92625 35.53785156 -40.9775 34.62648438 -40 33.6875 C-39.49887695 33.2018457 -38.99775391 32.71619141 -38.48144531 32.21582031 C-35.03043196 28.89711418 -31.46953837 25.71789861 -27.828125 22.609375 C-25.97062012 20.97413566 -24.23393991 19.26518207 -22.5 17.5 C-5.234375 0 -5.234375 0 0 0 Z " fill="#000000" transform="translate(1074,604)"/>
<path d="M0 0 C6.53867344 3.85509288 11.65829901 10.21874938 13.6875 17.5 C14.49602934 24.5859875 14.70410943 30.83000099 10.3125 36.71875 C5.37948701 42.12609116 0.60518611 46.86783108 -6.92578125 47.8359375 C-14.47128157 47.94513432 -19.63988292 46.9065925 -25.25390625 41.69921875 C-32.25402079 34.17299956 -33.97180465 28.09399076 -33.72265625 17.87890625 C-32.83478121 10.56450708 -28.60241906 6.32497883 -23.15625 1.7265625 C-16.47979334 -2.71497858 -7.33779469 -3.23894844 0 0 Z " fill="#000000" transform="translate(3285.3125,1054.5)"/>
<path d="M0 0 C5.10393235 3.05354052 9.9646532 8.2418064 12.625 13.5625 C13.25824341 21.96076094 13.76798462 30.45138999 8.625 37.5625 C3.74215797 42.95440429 -0.77546771 46.15206015 -8.1328125 46.80859375 C-14.75417595 47.08240953 -20.03159414 46.69933034 -25.375 42.5625 C-29.92947268 38.1613462 -34.01755565 33.90003275 -34.7109375 27.42578125 C-34.80524176 18.85352412 -34.53169791 11.99176826 -28.46875 5.53125 C-20.48402587 -1.73842421 -10.49349022 -4.57783737 0 0 Z " fill="#000000" transform="translate(481.375,375.4375)"/>
</svg>
